<svg width="17" height="16" viewBox="0 0 17 16" fill="none" xmlns="http://www.w3.org/2000/svg">
<path opacity="0.4" d="M9.40904 1.04713L11.1722 4.58093C11.3021 4.83696 11.55 5.01476 11.836 5.05427L15.7964 5.62953C16.0277 5.66193 16.2376 5.78362 16.3793 5.96932C16.5195 6.15265 16.5797 6.38497 16.5457 6.61334C16.518 6.80299 16.4284 6.97842 16.2914 7.11275L13.4217 9.88716C13.2118 10.0808 13.1168 10.3676 13.1675 10.6481L13.874 14.5486C13.9492 15.0195 13.6364 15.4636 13.1675 15.5529C12.9742 15.5838 12.7762 15.5514 12.6019 15.4628L9.06923 13.6272C8.80706 13.4952 8.49735 13.4952 8.23517 13.6272L4.7025 15.4628C4.26844 15.6928 3.73062 15.5363 3.48903 15.1096C3.39953 14.9397 3.36784 14.7461 3.39715 14.5573L4.10369 10.656C4.15438 10.3763 4.05854 10.0879 3.84943 9.89427L0.979724 7.12144C0.638338 6.79272 0.628041 6.25143 0.956754 5.91085C0.963883 5.90374 0.971803 5.89583 0.979724 5.88793C1.11596 5.74965 1.29497 5.66193 1.48824 5.63902L5.44864 5.06296C5.73379 5.02266 5.98171 4.84644 6.1124 4.58883L7.8122 1.04713C7.96349 0.743696 8.27716 0.554837 8.61775 0.562739H8.72389C9.01933 0.598298 9.27676 0.780835 9.40904 1.04713Z" fill="#CACACA"/>
<path d="M8.62957 13.5288C8.47617 13.5335 8.32673 13.5746 8.19232 13.6482L4.67692 15.4796C4.24678 15.6844 3.73204 15.5255 3.49088 15.1152C3.40154 14.9477 3.36912 14.7556 3.39916 14.5674L4.10129 10.6745C4.14874 10.3915 4.05385 10.1038 3.84748 9.90457L0.976494 7.13246C0.635707 6.79968 0.629381 6.25348 0.963052 5.91279C0.967796 5.90805 0.971749 5.9041 0.976494 5.90015C1.11249 5.76577 1.28802 5.67724 1.477 5.64957L5.44072 5.0678C5.72774 5.03144 5.97681 4.8528 6.10332 4.59353L7.82623 1.00725C7.9899 0.717947 8.3038 0.545629 8.63589 0.563809C8.62957 0.798574 8.62957 13.3691 8.62957 13.5288Z" fill="#485FAC"/>
</svg>
