<svg width="23" height="19" viewBox="0 0 23 19" fill="none" xmlns="http://www.w3.org/2000/svg">
<path d="M6.14937 13.3537C6.41564 13.3537 6.671 13.2314 6.85929 13.0138C7.04757 12.7962 7.15334 12.501 7.15334 12.1932C7.15334 11.8854 7.04757 11.5902 6.85929 11.3726C6.671 11.155 6.41564 11.0327 6.14937 11.0327C5.88309 11.0327 5.62773 11.155 5.43944 11.3726C5.25116 11.5902 5.14539 11.8854 5.14539 12.1932C5.14539 12.501 5.25116 12.7962 5.43944 13.0138C5.62773 13.2314 5.88309 13.3537 6.14937 13.3537Z" stroke="#415F6B" stroke-width="2" stroke-linecap="round" stroke-linejoin="round"/>
<path d="M1.12946 6.39049V2.44483C1.12946 2.26016 1.19292 2.08305 1.30589 1.95247C1.41886 1.82189 1.57208 1.74854 1.73184 1.74854H20.6067C20.7664 1.74854 20.9196 1.82189 21.0326 1.95247C21.1456 2.08305 21.209 2.26016 21.209 2.44483V6.39049M1.12946 6.39049V17.2991C1.12946 17.4837 1.19292 17.6608 1.30589 17.7914C1.41886 17.922 1.57208 17.9954 1.73184 17.9954H20.6067C20.7664 17.9954 20.9196 17.922 21.0326 17.7914C21.1456 17.6608 21.209 17.4837 21.209 17.2991V6.39049M1.12946 6.39049H21.209" stroke="#415F6B" stroke-width="2" stroke-linecap="round" stroke-linejoin="round"/>
</svg>
