<svg width="17" height="22" viewBox="0 0 17 22" fill="none" xmlns="http://www.w3.org/2000/svg">
    <path
        d="M10.7592 14.9746C11.5663 14.7948 12.3093 14.4632 12.9534 14.0127L14.2262 18.9179C14.6084 20.3907 13.0019 21.6146 11.5712 20.9408L9.42613 19.9305C8.72597 19.6007 7.90377 19.6007 7.2036 19.9305L5.05856 20.9408C3.62782 21.6146 2.02138 20.3907 2.40354 18.9179L3.67635 14.0127C4.32048 14.4632 5.06344 14.7948 5.87054 14.9746M10.7592 14.9746C9.15146 15.3328 7.47827 15.3328 5.87054 14.9746M10.7592 14.9746C12.9854 14.4786 14.7236 12.8276 15.2458 10.7131C15.6229 9.18603 15.6229 7.59679 15.2458 6.06972C14.7236 3.95522 12.9854 2.3042 10.7592 1.8082C9.15146 1.45 7.47827 1.45 5.87054 1.8082C3.64435 2.3042 1.90611 3.95522 1.38392 6.06972C1.00679 7.59679 1.00679 9.18603 1.38392 10.7131C1.90611 12.8276 3.64435 14.4786 5.87054 14.9746"
        stroke="white" stroke-width="1.5" />
</svg>
