<svg width="22" height="22" viewBox="0 0 22 22" fill="none" xmlns="http://www.w3.org/2000/svg">
<path d="M11.1295 1.45215C5.61546 1.45215 1.12946 5.84002 1.12946 11.2334V15.2858C1.12946 16.2874 2.02646 17.1021 3.12946 17.1021H4.12946C4.39467 17.1021 4.64903 16.9991 4.83656 16.8157C5.0241 16.6322 5.12946 16.3834 5.12946 16.124V11.0935C5.12946 10.8341 5.0241 10.5853 4.83656 10.4019C4.64903 10.2185 4.39467 10.1154 4.12946 10.1154H3.22146C3.77746 6.33006 7.10746 3.4084 11.1295 3.4084C15.1515 3.4084 18.4815 6.33006 19.0375 10.1154H18.1295C17.8642 10.1154 17.6099 10.2185 17.4223 10.4019C17.2348 10.5853 17.1295 10.8341 17.1295 11.0935V17.1021C17.1295 18.181 16.2325 19.0584 15.1295 19.0584H13.1295V18.0803H9.12946V21.0146H15.1295C17.3355 21.0146 19.1295 19.2599 19.1295 17.1021C20.2325 17.1021 21.1295 16.2874 21.1295 15.2858V11.2334C21.1295 5.84002 16.6435 1.45215 11.1295 1.45215Z" stroke="#415F6B" stroke-width="1.5"/>
</svg>
