<svg width="27" height="28" viewBox="0 0 27 28" fill="none" xmlns="http://www.w3.org/2000/svg">
    <path
        d="M24.3657 10.721C24.3657 10.3068 24.0299 9.97098 23.6157 9.97098C23.2015 9.97098 22.8657 10.3068 22.8657 10.721H24.3657ZM4.30079 10.721C4.30079 10.3068 3.965 9.97098 3.55079 9.97098C3.13657 9.97098 2.80079 10.3068 2.80079 10.721H4.30079ZM17.042 26.2095L17.2183 26.9385L17.042 26.2095ZM10.1245 26.2095L9.94812 26.9385L10.1245 26.2095ZM17.4757 4.0892L18.0142 3.56717V3.56717L17.4757 4.0892ZM25.4305 13.3724C25.7188 13.6698 26.1936 13.6772 26.491 13.3889C26.7884 13.1006 26.7958 12.6258 26.5075 12.3283L25.4305 13.3724ZM9.69078 4.0892L9.15228 3.56717L9.69078 4.0892ZM0.65901 12.3283C0.3707 12.6258 0.378072 13.1006 0.675477 13.3889C0.972882 13.6772 1.4477 13.6698 1.73601 13.3724L0.65901 12.3283ZM10.4434 22.8451L9.70564 22.7099L9.70564 22.7099L10.4434 22.8451ZM10.47 22.6999L11.2077 22.8351L11.2077 22.8351L10.47 22.6999ZM16.6965 22.6999L15.9588 22.8351L15.9588 22.8351L16.6965 22.6999ZM16.7231 22.8451L17.4608 22.7099V22.7099L16.7231 22.8451ZM16.3243 25.9907L15.6441 25.6747H15.6441L16.3243 25.9907ZM15.4834 26.0206C15.3089 26.3962 15.4719 26.8422 15.8476 27.0168C16.2232 27.1913 16.6692 27.0283 16.8438 26.6526L15.4834 26.0206ZM10.8422 25.9907L10.162 26.3067L10.162 26.3067L10.8422 25.9907ZM10.3227 26.6526C10.4972 27.0283 10.9433 27.1913 11.3189 27.0168C11.6946 26.8422 11.8576 26.3962 11.6831 26.0206L10.3227 26.6526ZM12.7039 20.1983L12.909 20.9197H12.909L12.7039 20.1983ZM14.4625 20.1983L14.2575 20.9197H14.2575L14.4625 20.1983ZM22.8657 10.721V17.6538H24.3657V10.721H22.8657ZM4.30079 17.6538V10.721H2.80079V17.6538H4.30079ZM16.8656 25.4805C14.7065 26.0029 12.4599 26.0029 10.3009 25.4805L9.94812 26.9385C12.339 27.517 14.8275 27.517 17.2183 26.9385L16.8656 25.4805ZM10.3009 25.4805C6.8006 24.6336 4.30079 21.4026 4.30079 17.6538H2.80079C2.80079 22.0655 5.74633 25.9218 9.94812 26.9385L10.3009 25.4805ZM17.2183 26.9385C21.4201 25.9218 24.3657 22.0655 24.3657 17.6538H22.8657C22.8657 21.4026 20.3659 24.6336 16.8656 25.4805L17.2183 26.9385ZM16.9372 4.61124L25.4305 13.3724L26.5075 12.3283L18.0142 3.56717L16.9372 4.61124ZM9.15228 3.56717L0.65901 12.3283L1.73601 13.3724L10.2293 4.61124L9.15228 3.56717ZM18.0142 3.56717C17.1116 2.63615 16.383 1.88224 15.7328 1.37044C15.0662 0.845831 14.3905 0.5 13.5832 0.5V2C13.9161 2 14.2691 2.12737 14.8051 2.54916C15.3573 2.98376 16.0048 3.64946 16.9372 4.61124L18.0142 3.56717ZM10.2293 4.61124C11.1617 3.64946 11.8092 2.98376 12.3614 2.54916C12.8973 2.12737 13.2504 2 13.5832 2V0.5C12.776 0.5 12.1003 0.84583 11.4337 1.37044C10.7835 1.88224 10.0548 2.63615 9.15228 3.56717L10.2293 4.61124ZM11.1811 22.9803L11.2077 22.8351L9.73226 22.5647L9.70564 22.7099L11.1811 22.9803ZM15.9588 22.8351L15.9854 22.9803L17.4608 22.7099L17.4342 22.5647L15.9588 22.8351ZM15.6441 25.6747L15.4834 26.0206L16.8438 26.6526L17.0045 26.3067L15.6441 25.6747ZM10.162 26.3067L10.3227 26.6526L11.6831 26.0206L11.5223 25.6747L10.162 26.3067ZM15.9854 22.9803C16.1528 23.8939 16.0328 24.8383 15.6441 25.6747L17.0045 26.3067C17.5246 25.1873 17.684 23.9275 17.4608 22.7099L15.9854 22.9803ZM9.70564 22.7099C9.48251 23.9275 9.64188 25.1873 10.162 26.3067L11.5223 25.6747C11.1337 24.8383 11.0136 23.8939 11.1811 22.9803L9.70564 22.7099ZM12.909 20.9197C13.3504 20.7943 13.8161 20.7943 14.2575 20.9197L14.6676 19.4768C13.9581 19.2752 13.2084 19.2752 12.4989 19.4768L12.909 20.9197ZM17.4342 22.5647C17.1637 21.0886 16.0984 19.8835 14.6676 19.4768L14.2575 20.9197C15.1195 21.1647 15.7876 21.9006 15.9588 22.8351L17.4342 22.5647ZM11.2077 22.8351C11.3789 21.9006 12.047 21.1647 12.909 20.9197L12.4989 19.4768C11.0681 19.8835 10.0028 21.0886 9.73226 22.5647L11.2077 22.8351Z"
        fill="#DCDFE1" />
</svg>
