<svg width="24" height="24" viewBox="0 0 24 24" fill="none" xmlns="http://www.w3.org/2000/svg">
<mask id="path-1-inside-1_300_1416" fill="white">
<path fill-rule="evenodd" clip-rule="evenodd" d="M4.77144 2.38532C6.43651 1.63061 9.16819 0.738281 12.1577 0.738281C15.0848 0.738281 17.7446 1.59353 19.4008 2.33819L19.4945 2.38029C19.9938 2.60903 20.3969 2.8252 20.6805 3.00052L18.1741 6.39389C23.9523 11.8647 28.4155 23.3588 12.1577 23.3588C-4.10009 23.3588 0.24306 12.0734 6.07147 6.39389L3.58133 3.00052C3.77335 2.88427 4.01694 2.74916 4.30734 2.60589C4.45118 2.53425 4.60589 2.46073 4.77144 2.38595V2.38532ZM16.5633 6.34864L18.5696 3.63207C16.7037 3.75649 14.4836 4.16244 12.3463 4.73554C10.8197 5.144 9.12341 5.08179 7.55266 4.81346C7.15684 4.7455 6.76373 4.66459 6.37408 4.5709L7.67682 6.34739C10.4689 7.26799 13.7705 7.26799 16.5633 6.34864V6.34864ZM6.89315 7.41818C10.1602 8.58701 14.0867 8.58701 17.3537 7.41693C18.7175 8.74831 19.8583 10.2613 20.7382 11.9056C21.6555 13.6387 22.1549 15.3712 22.0735 16.8643C21.9948 18.3052 21.3827 19.5363 19.985 20.4512C18.5283 21.4045 16.0781 22.102 12.157 22.102C8.23185 22.102 5.77021 21.4164 4.29988 20.4738C2.89197 19.5702 2.27384 18.3561 2.18632 16.9347C2.09472 15.4579 2.58324 13.7342 3.4972 11.9892C4.36908 10.3252 5.58566 8.72337 6.89315 7.41818V7.41818ZM6.11286 3.1991C6.65567 3.34866 7.2229 3.47874 7.79828 3.5774C9.25708 3.82624 10.7199 3.86269 11.9684 3.52775C13.4233 3.13522 14.903 2.8265 16.3991 2.60338C15.1506 2.25524 13.6905 1.99508 12.157 1.99508C9.81956 1.99508 7.63951 2.59898 6.11286 3.1991V3.1991Z"/>
</mask>
<path fill-rule="evenodd" clip-rule="evenodd" d="M4.77144 2.38532C6.43651 1.63061 9.16819 0.738281 12.1577 0.738281C15.0848 0.738281 17.7446 1.59353 19.4008 2.33819L19.4945 2.38029C19.9938 2.60903 20.3969 2.8252 20.6805 3.00052L18.1741 6.39389C23.9523 11.8647 28.4155 23.3588 12.1577 23.3588C-4.10009 23.3588 0.24306 12.0734 6.07147 6.39389L3.58133 3.00052C3.77335 2.88427 4.01694 2.74916 4.30734 2.60589C4.45118 2.53425 4.60589 2.46073 4.77144 2.38595V2.38532ZM16.5633 6.34864L18.5696 3.63207C16.7037 3.75649 14.4836 4.16244 12.3463 4.73554C10.8197 5.144 9.12341 5.08179 7.55266 4.81346C7.15684 4.7455 6.76373 4.66459 6.37408 4.5709L7.67682 6.34739C10.4689 7.26799 13.7705 7.26799 16.5633 6.34864V6.34864ZM6.89315 7.41818C10.1602 8.58701 14.0867 8.58701 17.3537 7.41693C18.7175 8.74831 19.8583 10.2613 20.7382 11.9056C21.6555 13.6387 22.1549 15.3712 22.0735 16.8643C21.9948 18.3052 21.3827 19.5363 19.985 20.4512C18.5283 21.4045 16.0781 22.102 12.157 22.102C8.23185 22.102 5.77021 21.4164 4.29988 20.4738C2.89197 19.5702 2.27384 18.3561 2.18632 16.9347C2.09472 15.4579 2.58324 13.7342 3.4972 11.9892C4.36908 10.3252 5.58566 8.72337 6.89315 7.41818V7.41818ZM6.11286 3.1991C6.65567 3.34866 7.2229 3.47874 7.79828 3.5774C9.25708 3.82624 10.7199 3.86269 11.9684 3.52775C13.4233 3.13522 14.903 2.8265 16.3991 2.60338C15.1506 2.25524 13.6905 1.99508 12.157 1.99508C9.81956 1.99508 7.63951 2.59898 6.11286 3.1991V3.1991Z" fill="#415F6B"/>
<path d="M4.77144 2.38532L-36.5119 -88.6954L-95.2286 -62.0814V2.38532H4.77144ZM19.4008 2.33819L60.4109 -88.8658L60.4073 -88.8675L19.4008 2.33819ZM19.4945 2.38029L61.1379 -88.5363L60.8217 -88.6811L60.5045 -88.8237L19.4945 2.38029ZM20.6805 3.00052L101.118 62.4133L165.646 -24.9502L73.262 -82.0594L20.6805 3.00052ZM18.1741 6.39389L-62.263 -53.0189L-114.841 18.1652L-50.579 79.0094L18.1741 6.39389ZM6.07147 6.39389L75.8612 78.0136L138.134 17.3318L86.6931 -52.7682L6.07147 6.39389ZM3.58133 3.00052L-48.2095 -82.5431L-141.695 -25.9439L-77.0403 62.1627L3.58133 3.00052ZM4.30734 2.60589L48.5523 92.2852L48.7198 92.2026L48.887 92.1193L4.30734 2.60589ZM4.77144 2.38595L45.9357 93.5205L104.771 66.9452V2.38595H4.77144ZM18.5696 3.63207L99.0092 63.0415L227.181 -110.501L11.9162 -96.1463L18.5696 3.63207ZM12.3463 4.73554L38.1926 101.338L38.2191 101.331L38.2456 101.323L12.3463 4.73554ZM7.55266 4.81346L-9.36969 103.371L-9.32791 103.378L-9.28612 103.386L7.55266 4.81346ZM6.37408 4.5709L29.7538 -92.6576L-235.75 -156.501L-74.2668 63.7067L6.37408 4.5709ZM7.67683 6.34739L-72.9641 65.4832L-54.0357 91.295L-23.6371 101.318L7.67683 6.34739ZM17.3537 7.41692L87.2112 -64.1368L42.4841 -107.804L-16.3639 -86.7272L17.3537 7.41692ZM20.7382 11.9056L109.121 -34.8755L109.015 -35.0764L108.907 -35.2767L20.7382 11.9056ZM22.0735 16.8643L121.925 22.3185L121.925 22.3095L22.0735 16.8643ZM19.985 20.4512L74.7415 104.128L74.7477 104.123L74.754 104.119L19.985 20.4512ZM4.29988 20.4738L-49.7148 104.631L-49.6924 104.645L-49.67 104.66L4.29988 20.4738ZM2.18632 16.9347L101.997 10.7886L101.996 10.7662L101.994 10.7438L2.18632 16.9347ZM3.4972 11.9892L-85.0802 -34.4226L-85.0844 -34.4145L-85.0887 -34.4064L3.4972 11.9892ZM7.79828 3.5774L-9.1019 102.139L-9.05953 102.146L-9.01716 102.153L7.79828 3.5774ZM11.9684 3.52775L37.8802 100.112L37.9489 100.094L38.0176 100.075L11.9684 3.52775ZM16.3991 2.60338L31.15 101.509L43.2594 -93.7217L16.3991 2.60338ZM46.0548 93.466C41.9293 95.3359 37.3681 97.0014 32.3106 98.2707C27.2679 99.5363 20.4148 100.738 12.1577 100.738V-99.2617C-9.24136 -99.2617 -26.3067 -93.321 -36.5119 -88.6954L46.0548 93.466ZM12.1577 100.738C4.05373 100.738 -2.72556 99.5805 -7.80806 98.3205C-12.8979 97.0586 -17.4805 95.3985 -21.6056 93.5438L60.4073 -88.8675C50.0996 -93.5018 33.2313 -99.2617 12.1577 -99.2617V100.738ZM-21.6093 93.5422L-21.5156 93.5843L60.5045 -88.8237L60.4109 -88.8658L-21.6093 93.5422ZM-22.149 93.2969C-23.4602 92.6963 -24.8856 92.0026 -26.4084 91.2011C-27.8813 90.4259 -29.7562 89.3863 -31.901 88.0604L73.262 -82.0594C68.697 -84.8813 64.4903 -87.0008 61.1379 -88.5363L-22.149 93.2969ZM-59.7566 -56.4122L-62.263 -53.0189L98.6112 65.8066L101.118 62.4133L-59.7566 -56.4122ZM-50.579 79.0094C-56.535 73.3702 -61.9997 66.4995 -66.437 58.111C-70.3004 50.8074 -77.6663 34.2785 -76.422 11.4787C-74.8904 -16.5865 -60.3972 -44.9189 -33.9827 -62.202C-12.7375 -76.1028 6.81454 -76.6412 12.1577 -76.6412V123.359C25.6298 123.359 50.7206 121.384 75.5209 105.157C105.49 85.5476 121.555 53.9997 123.281 22.3772C124.719 -3.98004 116.17 -24.4082 110.353 -35.4056C103.962 -47.4879 95.7722 -57.847 86.9272 -66.2216L-50.579 79.0094ZM12.1577 -76.6412C17.2789 -76.6412 36.4771 -76.1611 57.5147 -62.6686C83.8057 -45.8067 98.8804 -17.7106 100.642 10.8477C102.067 33.936 94.6209 50.664 90.8564 57.8493C86.4877 66.1876 81.2354 72.7768 75.8612 78.0136L-63.7183 -65.2259C-72.0067 -57.1493 -79.9875 -47.0196 -86.3017 -34.9679C-92.0117 -24.0693 -100.62 -3.45494 -98.9779 23.1646C-96.9979 55.2543 -80.325 86.5266 -50.4579 105.682C-25.8444 121.468 -1.09235 123.359 12.1577 123.359V-76.6412ZM86.6931 -52.7682L84.2029 -56.1616L-77.0403 62.1627L-74.5501 65.556L86.6931 -52.7682ZM55.3722 88.5441C52.9605 90.0042 50.6744 91.2383 48.5523 92.2852L-39.9376 -87.0735C-42.6405 -85.7399 -45.4138 -84.2357 -48.2095 -82.5431L55.3722 88.5441ZM48.887 92.1193C47.8639 92.6288 46.8785 93.0946 45.9357 93.5205L-36.3928 -88.7486C-37.6668 -88.1732 -38.9615 -87.5603 -40.2723 -86.9075L48.887 92.1193ZM104.771 2.38595V2.38532H-95.2286V2.38595H104.771ZM97.0028 65.7581L99.0092 63.0415L-61.8699 -55.7774L-63.8763 -53.0608L97.0028 65.7581ZM11.9162 -96.1463C1.96811 -95.483 -6.85768 -93.6477 -13.5529 -91.8524L38.2456 101.323C36.722 101.732 35.0407 102.118 33.1577 102.455C31.3629 102.776 28.6661 103.181 25.2231 103.41L11.9162 -96.1463ZM-13.4999 -91.8666C4.07775 -96.5696 18.2223 -94.8125 24.3914 -93.7586L-9.28612 103.386C0.0244768 104.976 17.5616 106.858 38.1926 101.338L-13.4999 -91.8666ZM24.475 -93.7443C26.241 -93.4411 28.0016 -93.079 29.7538 -92.6576L-17.0056 101.799C-14.4741 102.408 -11.9273 102.932 -9.36969 103.371L24.475 -93.7443ZM-74.2668 63.7067L-72.9641 65.4832L88.3177 -52.7884L87.015 -54.5649L-74.2668 63.7067ZM-23.6371 101.318C-0.504985 108.945 24.732 108.939 47.8318 101.334L-14.7052 -88.637C2.80903 -94.4026 21.4428 -94.4093 38.9907 -88.6233L-23.6371 101.318ZM-26.7924 101.574C-1.74438 110.535 26.0038 110.539 51.0714 101.561L-16.3639 -86.7272C-6.30458 -90.3299 3.3931 -91.7046 12.1147 -91.7054C20.8364 -91.7061 30.5282 -90.3332 40.5786 -86.7375L-26.7924 101.574ZM-52.5037 78.9707C-58.291 73.3205 -63.3824 66.6537 -67.4311 59.0879L108.907 -35.2767C103.099 -46.1311 95.7259 -55.8239 87.2112 -64.1368L-52.5037 78.9707ZM-67.6447 58.6867C-70.0322 54.176 -72.6552 48.2301 -74.66 40.9184C-76.6286 33.739 -78.4432 23.615 -77.7782 11.4191L121.925 22.3095C123.347 -3.75715 114.893 -23.97 109.121 -34.8755L-67.6447 58.6867ZM-77.7777 11.4102C-77.119 -0.647709 -73.9639 -15.3092 -65.708 -30.0387C-57.364 -44.9254 -46.0774 -55.8243 -34.7839 -63.217L74.754 104.119C104.246 84.8143 120.21 53.703 121.925 22.3185L-77.7777 11.4102ZM-34.7715 -63.2251C-23.4783 -70.6152 -12.8273 -74.129 -5.27886 -75.8537C2.31863 -77.5896 8.43186 -77.898 12.157 -77.898V122.102C25.4895 122.102 50.2621 120.146 74.7415 104.128L-34.7715 -63.2251ZM12.157 -77.898C15.7753 -77.898 21.7456 -77.6043 29.1875 -75.9356C36.5705 -74.2802 47.0686 -70.8928 58.2697 -63.712L-49.67 104.66C-25.3876 120.227 -0.966114 122.102 12.157 122.102V-77.898ZM58.3145 -63.6833C69.5152 -56.4943 80.9159 -45.7784 89.4498 -30.9292C97.9169 -16.1962 101.245 -1.43451 101.997 10.7886L-97.6246 23.0807C-95.6635 54.9287 -79.1003 85.7704 -49.7148 104.631L58.3145 -63.6833ZM101.994 10.7438C102.762 23.1138 100.964 33.378 99.0122 40.6119C97.0249 47.9775 94.4157 53.9309 92.0831 58.3847L-85.0887 -34.4064C-90.7275 -23.6398 -99.2567 -3.23131 -97.6219 23.1256L101.994 10.7438ZM92.0746 58.4009C87.7956 66.5674 82.7005 73.0413 77.5415 78.1911L-63.7552 -63.3548C-71.5291 -55.5945 -79.0574 -45.9171 -85.0802 -34.4226L92.0746 58.4009ZM-20.4502 99.6066C-17.0704 100.538 -13.2678 101.425 -9.1019 102.139L24.6985 -94.9842C27.7136 -94.4672 30.3818 -93.8405 32.6759 -93.2084L-20.4502 99.6066ZM-9.01716 102.153C0.110327 103.71 17.4593 105.591 37.8802 100.112L-13.9434 -93.0568C-4.45309 -95.6029 3.76865 -96.2143 9.72796 -96.2282C15.775 -96.2424 20.8357 -95.6431 24.6137 -94.9987L-9.01716 102.153ZM38.0176 100.075C35.7408 100.69 33.4478 101.167 31.15 101.509L1.64815 -96.3027C-3.64177 -95.5137 -8.89422 -94.4192 -14.0808 -93.0199L38.0176 100.075ZM43.2594 -93.7217C35.341 -95.9298 24.6972 -98.0049 12.157 -98.0049V101.995C2.68371 101.995 -5.03972 100.44 -10.4612 98.9285L43.2594 -93.7217ZM12.157 -98.0049C-6.34872 -98.0049 -21.2509 -93.4931 -30.4718 -89.8684L42.6975 96.2666C36.5299 98.6911 25.9879 101.995 12.157 101.995V-98.0049Z" fill="#415F6B" mask="url(#path-1-inside-1_300_1416)"/>
</svg>
