<svg width="21" height="23" viewBox="0 0 21 23" fill="none" xmlns="http://www.w3.org/2000/svg">
<g clip-path="url(#clip0_255_1756)">
<path d="M12.301 2.03376L8.37188 2.03376V5.49858L12.301 5.49858V2.03376ZM10.3364 0.243652C8.98339 0.243652 8.56262 0.932724 8.43117 1.36146L12.2417 1.36146C12.1103 0.932053 11.6895 0.243652 10.3364 0.243652ZM10.3364 17.241C11.6627 17.241 12.9347 16.7461 13.8725 15.8653C14.8103 14.9845 15.3372 13.7899 15.3372 12.5443C15.3372 9.95439 12.5189 9.23177 12.3203 6.1702L11.413 6.1702C11.4187 6.18765 11.4295 6.20375 11.433 6.22388L12.8618 13.6024C12.8752 13.6812 12.8584 13.762 12.8143 13.8303C12.7702 13.8986 12.7017 13.95 12.621 13.9752C12.5403 14.0004 12.4527 13.9979 12.3738 13.9681C12.2949 13.9383 12.2299 13.8831 12.1903 13.8124L11.7952 13.0703L11.4002 13.8131C11.3704 13.8685 11.3248 13.9152 11.2685 13.9477C11.2122 13.9803 11.1473 13.9976 11.0812 13.9976C11.0151 13.9976 10.9502 13.9803 10.8939 13.9477C10.8376 13.9152 10.792 13.8685 10.7622 13.8131L10.3672 13.071L9.97211 13.8137C9.94272 13.8696 9.89727 13.9167 9.8409 13.9496C9.78453 13.9825 9.7195 13.9999 9.65313 13.9999C9.58677 13.9999 9.52173 13.9825 9.46536 13.9496C9.40899 13.9167 9.36355 13.8696 9.33416 13.8137L8.93839 13.0717L8.54333 13.8144C8.50416 13.8854 8.43928 13.9409 8.36039 13.9709C8.28149 14.001 8.19377 14.0036 8.11302 13.9782C8.03228 13.9529 7.96382 13.9013 7.91999 13.8328C7.87616 13.7642 7.85983 13.6832 7.87395 13.6044L9.30272 6.22522C9.30558 6.20509 9.31701 6.18966 9.32273 6.17289H8.35473C8.15613 9.23378 5.33716 9.95708 5.33716 12.547C5.33716 15.1395 7.57605 17.2437 10.3379 17.2437L10.3364 17.241ZM8.93767 11.9854C9.00382 11.9851 9.06873 12.0023 9.12504 12.0349C9.18135 12.0675 9.22681 12.1143 9.25629 12.1699L9.65206 12.9113L10.0471 12.1692C10.0772 12.1138 10.1229 12.0672 10.1794 12.0347C10.2358 12.0022 10.3007 11.9849 10.3669 11.9848C10.4332 11.9848 10.4981 12.0019 10.5546 12.0343C10.6112 12.0667 10.657 12.1132 10.6872 12.1685L11.0823 12.91L11.4773 12.1679C11.5067 12.1121 11.5521 12.0652 11.6084 12.0325C11.6648 11.9998 11.7297 11.9825 11.7959 11.9827H11.8224L10.7829 6.61505H9.94925L8.91052 11.9827H8.93767V11.9854Z" fill="#DCDFE1"/>
<path d="M10.1818 19.2607C10.0344 19.2607 9.89313 19.3193 9.78894 19.4235C9.68475 19.5276 9.62622 19.669 9.62622 19.8163V21.7663C9.62622 21.9136 9.68475 22.0549 9.78894 22.1591C9.89313 22.2633 10.0344 22.3219 10.1818 22.3219C10.3291 22.3219 10.4704 22.2633 10.5746 22.1591C10.6788 22.0549 10.7373 21.9136 10.7373 21.7663V19.8163C10.7373 19.669 10.6788 19.5276 10.5746 19.4235C10.4704 19.3193 10.3291 19.2607 10.1818 19.2607Z" fill="#DCDFE1"/>
<path d="M15.5153 17.3772C15.409 17.2862 15.2723 17.2387 15.1325 17.2441C14.9927 17.2495 14.86 17.3074 14.7611 17.4064C14.6622 17.5053 14.6042 17.6379 14.5988 17.7778C14.5934 17.9176 14.641 18.0543 14.732 18.1606L16.1098 19.5383C16.216 19.6294 16.3527 19.6769 16.4926 19.6715C16.6324 19.6661 16.765 19.6082 16.864 19.5092C16.9629 19.4103 17.0209 19.2776 17.0263 19.1378C17.0317 18.998 16.9841 18.8613 16.8931 18.755L15.5153 17.3772Z" fill="#DCDFE1"/>
<path d="M4.84852 17.3772L3.47075 18.755C3.37973 18.8613 3.33217 18.998 3.33757 19.1378C3.34297 19.2776 3.40094 19.4103 3.49988 19.5092C3.59882 19.6082 3.73145 19.6661 3.87127 19.6715C4.01109 19.6769 4.1478 19.6294 4.25408 19.5383L5.63186 18.1606C5.72287 18.0543 5.77043 17.9176 5.76503 17.7778C5.75963 17.6379 5.70167 17.5053 5.60273 17.4064C5.50378 17.3074 5.37115 17.2495 5.23133 17.2441C5.09151 17.2387 4.9548 17.2862 4.84852 17.3772Z" fill="#DCDFE1"/>
<path d="M3.39827 11.7992C3.39827 11.6519 3.33974 11.5106 3.23555 11.4064C3.13136 11.3022 2.99006 11.2437 2.84271 11.2437H0.892714C0.745371 11.2437 0.604064 11.3022 0.499877 11.4064C0.39569 11.5106 0.337158 11.6519 0.337158 11.7992C0.337158 11.9466 0.39569 12.0879 0.499877 12.192C0.604064 12.2962 0.745371 12.3548 0.892714 12.3548H2.84271C2.99006 12.3548 3.13136 12.2962 3.23555 12.192C3.33974 12.0879 3.39827 11.9466 3.39827 11.7992Z" fill="#DCDFE1"/>
<path d="M19.7704 11.2437H17.8204C17.6731 11.2437 17.5318 11.3022 17.4276 11.4064C17.3234 11.5106 17.2649 11.6519 17.2649 11.7992C17.2649 11.9466 17.3234 12.0879 17.4276 12.192C17.5318 12.2962 17.6731 12.3548 17.8204 12.3548H19.7704C19.9178 12.3548 20.0591 12.2962 20.1633 12.192C20.2675 12.0879 20.326 11.9466 20.326 11.7992C20.326 11.6519 20.2675 11.5106 20.1633 11.4064C20.0591 11.3022 19.9178 11.2437 19.7704 11.2437Z" fill="#DCDFE1"/>
</g>
<defs>
<clipPath id="clip0_255_1756">
<rect width="20" height="22" fill="white" transform="translate(20.3372 22.2437) rotate(180)"/>
</clipPath>
</defs>
</svg>
