<svg width="22" height="23" viewBox="0 0 22 23" fill="none" xmlns="http://www.w3.org/2000/svg">
<path d="M1.12946 11.6909C1.12946 17.2139 5.60646 21.6909 11.1295 21.6909C16.6525 21.6909 21.1295 17.2139 21.1295 11.6909C21.1295 6.16792 16.6525 1.69092 11.1295 1.69092C5.60646 1.69092 1.12946 6.16792 1.12946 11.6909Z" stroke="#415F6B" stroke-width="1.5" stroke-linecap="round" stroke-linejoin="round"/>
<path d="M12.1295 1.74097C12.1295 1.74097 15.1295 5.69097 15.1295 11.691C15.1295 17.691 12.1295 21.641 12.1295 21.641M10.1295 21.641C10.1295 21.641 7.12946 17.691 7.12946 11.691C7.12946 5.69097 10.1295 1.74097 10.1295 1.74097M1.75946 15.191H20.4995M1.75946 8.19097H20.4995" stroke="#415F6B" stroke-width="1.5" stroke-linecap="round" stroke-linejoin="round"/>
</svg>
