<svg width="16" height="18" viewBox="0 0 16 18" fill="none" xmlns="http://www.w3.org/2000/svg">
<path d="M0.286621 13.3023C0.286621 13.9702 0.79555 14.4235 1.61461 14.4235H4.88288C4.95445 15.9423 6.19496 17.3339 8.00007 17.3339C9.80518 17.3339 11.0457 15.9423 11.1173 14.4235H14.3855C15.2125 14.4235 15.7135 13.9702 15.7135 13.3023C15.7135 12.4593 14.9422 11.7357 14.2185 11.0359C13.6619 10.4952 13.5347 9.41372 13.4313 8.3561C13.4233 7.89488 13.3915 7.46547 13.3438 7.05197C12.8747 7.24282 12.2942 7.32234 11.7932 7.25872C11.8329 7.62451 11.8647 8.03007 11.8727 8.49128C11.9522 10.0022 12.2146 11.1393 12.7554 11.7675C13.153 12.2208 13.5983 12.6422 13.7971 12.8728V12.9683H2.18715V12.8728C2.3939 12.6422 2.85512 12.2208 3.24477 11.7675C3.79346 11.1393 4.04792 10.0022 4.12744 8.49128C4.22287 5.26277 5.20891 4.18129 6.49714 3.83936C6.68799 3.79164 6.79932 3.69622 6.81522 3.48152C6.85498 2.67041 7.30029 2.12967 8.00007 2.12967C8.13525 2.12967 8.26249 2.13763 8.36586 2.18534C8.509 1.70822 8.75551 1.27881 9.08154 0.920968C8.76346 0.761928 8.39767 0.666504 8.00007 0.666504C6.81522 0.666504 5.93255 1.46966 5.63037 2.51932C3.5549 3.27476 2.68018 5.28662 2.5768 8.30043C2.47342 9.38986 2.34619 10.4872 1.7816 11.0359C1.06592 11.7357 0.286621 12.4593 0.286621 13.3023ZM11.9761 6.21701C13.4711 6.21701 14.7195 4.98445 14.7195 3.47356C14.7195 1.97063 13.4711 0.73012 11.9761 0.73012C10.4652 0.73012 9.23263 1.97063 9.23263 3.47356C9.23263 4.98445 10.4652 6.21701 11.9761 6.21701ZM6.38581 14.4235H9.61433C9.55866 15.4175 8.9066 16.0616 8.00007 16.0616C7.10149 16.0616 6.44943 15.4175 6.38581 14.4235Z" fill="white"/>
</svg>
