<svg width="23" height="19" viewBox="0 0 23 19" fill="none" xmlns="http://www.w3.org/2000/svg">
    <path
        d="M1.42929 15.7685C1.42929 13.7663 3.0439 12.0608 5.23821 11.7453L5.43587 11.7169C7.19295 11.4642 8.9834 11.4642 10.7405 11.7169L10.9381 11.7453C13.1324 12.0608 14.7471 13.7663 14.7471 15.7685C14.7471 16.6339 13.9685 17.3354 13.008 17.3354H3.16833C2.20789 17.3354 1.42929 16.6339 1.42929 15.7685Z"
        stroke="white" stroke-width="1.5" />
    <path
        d="M11.9725 4.83545C11.9725 6.76845 10.2334 8.33545 8.08818 8.33545C5.94291 8.33545 4.20383 6.76845 4.20383 4.83545C4.20383 2.90245 5.94291 1.33545 8.08818 1.33545C10.2334 1.33545 11.9725 2.90245 11.9725 4.83545Z"
        stroke="white" stroke-width="1.5" />
    <path
        d="M14.747 8.33545C16.8923 8.33545 18.6314 6.76845 18.6314 4.83545C18.6314 2.90245 16.8923 1.33545 14.747 1.33545M17.3993 17.3354H19.6669C20.6273 17.3354 21.4059 16.6339 21.4059 15.7685C21.4059 13.7663 19.7913 12.0608 17.597 11.7453V11.7453C17.4654 11.7264 17.3324 11.7169 17.1994 11.7169C16.8442 11.7169 16.7341 11.7169 16.1245 11.7169"
        stroke="white" stroke-width="1.5" stroke-linecap="round" />
</svg>
