<svg width="21" height="21" viewBox="0 0 21 21" fill="none" xmlns="http://www.w3.org/2000/svg">
<path d="M13.9072 19.1726C14.7911 19.3279 15.6998 19.3279 16.5837 19.1726C18.0044 18.9229 19.1487 17.9716 19.5429 16.7127L19.6265 16.4456C19.7134 16.168 19.7575 15.8809 19.7575 15.5925C19.7575 14.3203 18.6168 13.2891 17.2096 13.2891H13.2813C11.8742 13.2891 10.7335 14.3203 10.7335 15.5925C10.7335 15.8809 10.7775 16.168 10.8645 16.4456L10.9481 16.7127C11.3422 17.9716 12.4866 18.9229 13.9072 19.1726ZM13.9072 19.1726C7.76754 18.038 2.96389 13.2471 1.82629 7.12375M1.82629 7.12375C1.67053 6.24221 1.67053 5.33592 1.82629 4.45438C2.07663 3.03748 3.03043 1.89619 4.29275 1.50308L4.56051 1.41969C4.83882 1.33302 5.12669 1.28906 5.41594 1.28906C6.69146 1.28906 7.72548 2.42674 7.72547 3.83013L7.72547 7.748C7.72548 9.15139 6.69146 10.2891 5.41594 10.2891C5.12669 10.2891 4.83882 10.2451 4.56051 10.1584L4.29275 10.075C3.03043 9.68194 2.07663 8.54065 1.82629 7.12375Z" stroke="#485FAC" stroke-width="1.5"/>
</svg>
