<svg width="23" height="19" viewBox="0 0 23 19" fill="none" xmlns="http://www.w3.org/2000/svg">
<path d="M3.2941 11.3753L4.01667 11.1744L3.2941 11.3753ZM3.2941 6.09621L2.57153 5.89523L3.2941 6.09621ZM21.0439 6.09622L20.3214 6.29719L21.0439 6.09622ZM21.0439 11.3753L21.7665 11.5763L21.0439 11.3753ZM15.2989 16.2203L15.1534 15.4846L15.2989 16.2203ZM9.03912 16.2203L9.18466 15.4846L9.03912 16.2203ZM9.03912 1.25123L9.18466 1.98698L9.03912 1.25123ZM15.2989 1.25123L15.1534 1.98698L15.2989 1.25123ZM4.04986 13.0322L4.6774 12.6215L4.43898 12.2572L4.00443 12.2836L4.04986 13.0322ZM7.07447 15.5829L7.82175 15.6467L7.86633 15.1243L7.39099 14.903L7.07447 15.5829ZM8.21233 6.55571C7.79812 6.55571 7.46233 6.8915 7.46233 7.30571C7.46233 7.71992 7.79812 8.05571 8.21233 8.05571V6.55571ZM11.6038 8.05571C12.018 8.05571 12.3538 7.71992 12.3538 7.30571C12.3538 6.8915 12.018 6.55571 11.6038 6.55571V8.05571ZM9.34281 9.41584C8.9286 9.41584 8.59281 9.75162 8.59281 10.1658C8.59281 10.5801 8.9286 10.9158 9.34281 10.9158V9.41584ZM14.9952 10.9158C15.4094 10.9158 15.7452 10.5801 15.7452 10.1658C15.7452 9.75162 15.4094 9.41584 14.9952 9.41584V10.9158ZM4.01667 11.1744C3.57035 9.5697 3.57035 7.90185 4.01667 6.29719L2.57153 5.89523C2.05206 7.76287 2.05206 9.70868 2.57153 11.5763L4.01667 11.1744ZM20.3214 6.29719C20.7677 7.90185 20.7677 9.5697 20.3214 11.1744L21.7665 11.5763C22.286 9.70868 22.286 7.76287 21.7665 5.89524L20.3214 6.29719ZM15.1534 15.4846C13.1908 15.8728 11.1472 15.8728 9.18466 15.4846L8.89357 16.9561C11.0483 17.3823 13.2897 17.3823 15.4445 16.9561L15.1534 15.4846ZM9.18466 1.98698C11.1472 1.59874 13.1908 1.59874 15.1534 1.98698L15.4445 0.515492C13.2897 0.0892372 11.0483 0.0892372 8.89357 0.515492L9.18466 1.98698ZM9.18466 15.4846C6.55603 14.9646 4.59526 13.2545 4.01667 11.1744L2.57153 11.5763C3.33027 14.3042 5.82102 16.3482 8.89357 16.9561L9.18466 15.4846ZM15.4445 16.9561C18.517 16.3482 21.0078 14.3042 21.7665 11.5763L20.3214 11.1744C19.7428 13.2545 17.782 14.9646 15.1534 15.4846L15.4445 16.9561ZM15.1534 1.98698C17.782 2.50697 19.7428 4.21703 20.3214 6.29719L21.7665 5.89524C21.0078 3.16739 18.517 1.1233 15.4445 0.515492L15.1534 1.98698ZM8.89357 0.515492C5.82102 1.1233 3.33027 3.16738 2.57153 5.89523L4.01667 6.29719C4.59526 4.21702 6.55603 2.50697 9.18466 1.98698L8.89357 0.515492ZM4.00443 12.2836C2.2603 12.3894 0.679443 13.6478 0.679443 15.4094H2.17944C2.17944 14.655 2.90983 13.8527 4.09529 13.7808L4.00443 12.2836ZM0.679443 15.4094C0.679443 17.2546 2.4054 18.5428 4.25565 18.5428V17.0428C2.98415 17.0428 2.17944 16.1968 2.17944 15.4094H0.679443ZM4.25565 18.5428C6.03036 18.5428 7.6749 17.3678 7.82175 15.6467L6.32718 15.5192C6.26323 16.2687 5.46426 17.0428 4.25565 17.0428V18.5428ZM7.39099 14.903C6.23284 14.3639 5.29609 13.5667 4.6774 12.6215L3.42233 13.4429C4.20844 14.644 5.3711 15.6173 6.75795 16.2629L7.39099 14.903ZM8.21233 8.05571H11.6038V6.55571H8.21233V8.05571ZM9.34281 10.9158H14.9952V9.41584H9.34281V10.9158Z" fill="white"/>
</svg>
