<svg width="20" height="20" viewBox="0 0 20 20" fill="none" xmlns="http://www.w3.org/2000/svg">
<path d="M16.2196 16.1737H18.5996M3.18627 10L1.59961 10.0416M3.18627 10C3.18627 11.2518 4.2011 12.2667 5.45294 12.2667C6.70479 12.2667 7.71961 11.2518 7.71961 10C7.71961 8.74815 6.70479 7.73333 5.45294 7.73333C4.2011 7.73333 3.18627 8.74815 3.18627 10ZM8.37031 10.0417H18.5996M10.8561 3.9095L1.59961 3.9095M18.5996 3.9095H16.2196M1.59961 16.1737H10.8561M15.6529 16.2333C15.6529 17.4852 14.6381 18.5 13.3863 18.5C12.1344 18.5 11.1196 17.4852 11.1196 16.2333C11.1196 14.9815 12.1344 13.9667 13.3863 13.9667C14.6381 13.9667 15.6529 14.9815 15.6529 16.2333ZM15.6529 3.76667C15.6529 5.01851 14.6381 6.03333 13.3863 6.03333C12.1344 6.03333 11.1196 5.01851 11.1196 3.76667C11.1196 2.51482 12.1344 1.5 13.3863 1.5C14.6381 1.5 15.6529 2.51482 15.6529 3.76667Z" stroke="white" stroke-width="1.5" stroke-linecap="round"/>
</svg>
