<svg width="21" height="21" viewBox="0 0 21 21" fill="none" xmlns="http://www.w3.org/2000/svg">
<g clip-path="url(#clip0_255_1743)">
<path d="M10.7359 3.81013C10.8832 3.81013 11.0245 3.7516 11.1287 3.64742C11.2329 3.54323 11.2914 3.40192 11.2914 3.25458V1.30458C11.2914 1.15724 11.2329 1.01593 11.1287 0.911742C11.0245 0.807555 10.8832 0.749023 10.7359 0.749023C10.5885 0.749023 10.4472 0.807555 10.343 0.911742C10.2388 1.01593 10.1803 1.15724 10.1803 1.30458V3.25458C10.1803 3.40192 10.2388 3.54323 10.343 3.64742C10.4472 3.7516 10.5885 3.81013 10.7359 3.81013Z" fill="#DCDFE1"/>
<path d="M10.7359 16.6768C10.5885 16.6768 10.4472 16.7353 10.343 16.8395C10.2388 16.9437 10.1803 17.085 10.1803 17.2323V19.1823C10.1803 19.3297 10.2388 19.471 10.343 19.5752C10.4472 19.6793 10.5885 19.7379 10.7359 19.7379C10.8832 19.7379 11.0245 19.6793 11.1287 19.5752C11.2329 19.471 11.2914 19.3297 11.2914 19.1823V17.2323C11.2914 17.085 11.2329 16.9437 11.1287 16.8395C11.0245 16.7353 10.8832 16.6768 10.7359 16.6768Z" fill="#DCDFE1"/>
<path d="M5.40248 5.69362C5.50876 5.78464 5.64547 5.8322 5.78529 5.8268C5.92511 5.8214 6.05774 5.76343 6.15668 5.66449C6.25562 5.56555 6.31358 5.43292 6.31898 5.2931C6.32439 5.15328 6.27683 5.01657 6.18581 4.91029L4.80803 3.53251C4.70176 3.4415 4.56505 3.39394 4.42523 3.39934C4.28541 3.40474 4.15277 3.4627 4.05383 3.56164C3.95489 3.66059 3.89693 3.79322 3.89153 3.93304C3.88613 4.07286 3.93369 4.20957 4.0247 4.31585L5.40248 5.69362Z" fill="#DCDFE1"/>
<path d="M16.0691 14.7937C15.9629 14.7027 15.8262 14.6552 15.6863 14.6606C15.5465 14.666 15.4139 14.7239 15.3149 14.8229C15.216 14.9218 15.158 15.0544 15.1526 15.1943C15.1472 15.3341 15.1948 15.4708 15.2858 15.5771L16.6636 16.9549C16.7699 17.0459 16.9066 17.0934 17.0464 17.088C17.1862 17.0826 17.3188 17.0247 17.4178 16.9257C17.5167 16.8268 17.5747 16.6941 17.5801 16.5543C17.5855 16.4145 17.5379 16.2778 17.4469 16.1715L16.0691 14.7937Z" fill="#DCDFE1"/>
<path d="M4.30257 10.2435C4.30257 10.0962 4.24403 9.95489 4.13985 9.85071C4.03566 9.74652 3.89435 9.68799 3.74701 9.68799H1.79701C1.64967 9.68799 1.50836 9.74652 1.40417 9.85071C1.29999 9.95489 1.24146 10.0962 1.24146 10.2435C1.24146 10.3909 1.29999 10.5322 1.40417 10.6364C1.50836 10.7406 1.64967 10.7991 1.79701 10.7991H3.74701C3.89435 10.7991 4.03566 10.7406 4.13985 10.6364C4.24403 10.5322 4.30257 10.3909 4.30257 10.2435Z" fill="#DCDFE1"/>
<path d="M19.6747 9.68799H17.7247C17.5774 9.68799 17.4361 9.74652 17.3319 9.85071C17.2277 9.95489 17.1692 10.0962 17.1692 10.2435C17.1692 10.3909 17.2277 10.5322 17.3319 10.6364C17.4361 10.7406 17.5774 10.7991 17.7247 10.7991H19.6747C19.8221 10.7991 19.9634 10.7406 20.0676 10.6364C20.1718 10.5322 20.2303 10.3909 20.2303 10.2435C20.2303 10.0962 20.1718 9.95489 20.0676 9.85071C19.9634 9.74652 19.8221 9.68799 19.6747 9.68799Z" fill="#DCDFE1"/>
<path d="M5.40248 14.7937L4.0247 16.1715C3.93369 16.2778 3.88613 16.4145 3.89153 16.5543C3.89693 16.6941 3.95489 16.8268 4.05383 16.9257C4.15277 17.0247 4.28541 17.0826 4.42523 17.088C4.56505 17.0934 4.70176 17.0459 4.80803 16.9549L6.18581 15.5771C6.27683 15.4708 6.32439 15.3341 6.31898 15.1943C6.31358 15.0544 6.25562 14.9218 6.15668 14.8229C6.05774 14.7239 5.92511 14.666 5.78529 14.6606C5.64547 14.6552 5.50876 14.7027 5.40248 14.7937Z" fill="#DCDFE1"/>
<path d="M16.0691 5.69362L17.4469 4.31585C17.5379 4.20957 17.5855 4.07286 17.5801 3.93304C17.5747 3.79322 17.5167 3.66059 17.4178 3.56164C17.3188 3.4627 17.1862 3.40474 17.0464 3.39934C16.9066 3.39394 16.7699 3.4415 16.6636 3.53251L15.2858 4.91029C15.1948 5.01657 15.1472 5.15328 15.1526 5.2931C15.158 5.43292 15.216 5.56555 15.3149 5.66449C15.4139 5.76343 15.5465 5.8214 15.6863 5.8268C15.8262 5.8322 15.9629 5.78464 16.0691 5.69362Z" fill="#DCDFE1"/>
<path d="M10.7359 15.7991C13.8041 15.7991 16.2914 13.3118 16.2914 10.2435C16.2914 7.17529 13.8041 4.68799 10.7359 4.68799C7.6676 4.68799 5.1803 7.17529 5.1803 10.2435C5.1803 13.3118 7.6676 15.7991 10.7359 15.7991Z" fill="#DCDFE1"/>
</g>
<defs>
<clipPath id="clip0_255_1743">
<rect width="20" height="20" fill="white" transform="translate(0.73584 0.243652)"/>
</clipPath>
</defs>
</svg>
