<svg width="19" height="19" viewBox="0 0 19 19" fill="none" xmlns="http://www.w3.org/2000/svg">
<path d="M1.64405 12.6464L2.13077 12.5319L1.64405 12.6464ZM1.64405 6.71768L2.13077 6.83218L1.64405 6.71768ZM17.8896 6.71769L18.3763 6.60319L17.8896 6.71769ZM17.8896 12.6464L17.4029 12.5319L17.8896 12.6464ZM12.5434 17.8274L12.4295 17.3406H12.4295L12.5434 17.8274ZM6.99028 17.8274L7.10415 17.3406L6.99028 17.8274ZM6.99028 1.53664L7.10415 2.0235H7.10415L6.99028 1.53664ZM12.5434 1.53664L12.6572 1.04978V1.04978L12.5434 1.53664ZM6.5858 17.7328L6.47192 18.2197L6.5858 17.7328ZM12.9478 17.7328L13.0617 18.2197H13.0617L12.9478 17.7328ZM12.9478 1.63125L12.834 2.11811V2.11811L12.9478 1.63125ZM6.5858 1.63125L6.47192 1.14439V1.14439L6.5858 1.63125ZM6.63783 7.7308C6.41735 7.56454 6.10383 7.60848 5.93757 7.82896C5.7713 8.04943 5.81524 8.36295 6.03572 8.52922L6.63783 7.7308ZM8.62757 9.85758L8.92863 9.45837L8.62757 9.85758ZM10.9061 9.85758L11.2071 10.2568L10.9061 9.85758ZM13.4979 8.52922C13.7184 8.36295 13.7623 8.04943 13.5961 7.82896C13.4298 7.60848 13.1163 7.56454 12.8958 7.7308L13.4979 8.52922ZM6.69967 2.11811L7.10415 2.0235L6.8764 1.04978L6.47192 1.14439L6.69967 2.11811ZM12.4295 2.0235L12.834 2.11811L13.0617 1.14439L12.6572 1.04978L12.4295 2.0235ZM12.834 17.246L12.4295 17.3406L12.6572 18.3143L13.0617 18.2197L12.834 17.246ZM7.10415 17.3406L6.69967 17.246L6.47192 18.2197L6.8764 18.3143L7.10415 17.3406ZM2.13077 12.5319C1.69054 10.6605 1.69054 8.70354 2.13077 6.83218L1.15734 6.60319C0.681685 8.62516 0.681684 10.7389 1.15734 12.7609L2.13077 12.5319ZM17.4029 6.83219C17.8431 8.70355 17.8431 10.6605 17.4029 12.5319L18.3763 12.7609C18.8519 10.7389 18.8519 8.62516 18.3763 6.60319L17.4029 6.83219ZM12.4295 17.3406C10.6755 17.7508 8.8581 17.7508 7.10415 17.3406L6.8764 18.3143C8.78016 18.7596 10.7535 18.7596 12.6572 18.3143L12.4295 17.3406ZM7.10415 2.0235C8.8581 1.61326 10.6755 1.61326 12.4295 2.0235L12.6572 1.04978C10.7535 0.6045 8.78017 0.6045 6.8764 1.04978L7.10415 2.0235ZM6.69967 17.246C4.46788 16.724 2.68948 14.9069 2.13077 12.5319L1.15734 12.7609C1.79754 15.4823 3.84759 17.6059 6.47192 18.2197L6.69967 17.246ZM13.0617 18.2197C15.686 17.6059 17.7361 15.4823 18.3763 12.7609L17.4029 12.5319C16.8442 14.9069 15.0657 16.724 12.834 17.246L13.0617 18.2197ZM12.834 2.11811C15.0657 2.64011 16.8442 4.45714 17.4029 6.83219L18.3763 6.60319C17.7361 3.88173 15.686 1.75821 13.0617 1.14439L12.834 2.11811ZM6.47192 1.14439C3.84759 1.75821 1.79754 3.88173 1.15734 6.60319L2.13077 6.83218C2.68948 4.45714 4.46789 2.64011 6.69967 2.11811L6.47192 1.14439ZM6.03572 8.52922L8.32652 10.2568L8.92863 9.45837L6.63783 7.7308L6.03572 8.52922ZM11.2071 10.2568L13.4979 8.52922L12.8958 7.7308L10.605 9.45837L11.2071 10.2568ZM8.32652 10.2568C9.18622 10.9051 10.3474 10.9051 11.2071 10.2568L10.605 9.45837C10.1017 9.83792 9.43192 9.83792 8.92863 9.45837L8.32652 10.2568Z" fill="#C4C4C4"/>
</svg>
