<svg width="20" height="22" viewBox="0 0 20 22" fill="none" xmlns="http://www.w3.org/2000/svg">
<path d="M7.69893 0.705078C5.56734 0.705078 3.74595 1.38528 2.47306 2.60098C1.20017 3.81582 0.523438 5.54448 0.523438 7.50104C0.523438 8.97669 1.0884 10.1135 1.66115 11.1291C2.23304 12.1446 2.8084 13.0553 3.12294 14.1896C3.50247 15.5872 3.76588 17.2587 4.20606 18.6572C4.42616 19.3539 4.69044 19.9908 5.09943 20.5254C5.50928 21.06 6.15916 21.5002 6.91388 21.5002C7.63827 21.5002 8.3592 21.1242 8.72833 20.5523C9.09746 19.9804 9.18844 19.3036 9.18844 18.5758C9.18844 17.6824 9.18844 16.2882 9.37821 15.1912C9.47352 14.6427 9.63556 14.1861 9.7846 13.9452C9.93277 13.7052 9.94057 13.7017 10.0549 13.7017C10.1702 13.7017 10.1763 13.7017 10.3262 13.9452C10.4743 14.1896 10.6372 14.6427 10.7317 15.1912C10.9249 16.2874 10.9214 17.6824 10.9214 18.5758C10.9214 19.3036 11.0124 19.9804 11.3816 20.5523C11.7507 21.1242 12.4716 21.5002 13.196 21.5002C13.9542 21.5002 14.6041 21.0635 15.0105 20.5254C15.416 19.9873 15.6837 19.3305 15.9038 18.6295C16.344 17.2284 16.6109 15.563 16.9869 14.1887C17.3015 13.0553 17.8768 12.1446 18.4496 11.1299C19.0215 10.1135 19.5865 8.97669 19.5865 7.50104C19.6298 3.568 16.6351 0.705078 12.7082 0.705078C11.5679 0.705078 10.2213 1.12793 10.0004 1.19292C9.29676 0.915638 8.52817 0.705078 7.69893 0.705078ZM7.69893 2.43808C9.70661 2.43808 12.0046 4.55061 12.0046 4.55061L13.2229 3.30458C13.2229 3.30458 12.651 2.854 12.2481 2.51953C12.4309 2.4918 12.5903 2.43808 12.709 2.43808C15.8458 2.43808 17.8872 4.37731 17.8534 7.47505V7.50104C17.8534 8.55124 17.4947 9.34322 16.9601 10.2912C16.4255 11.2383 15.7037 12.298 15.3077 13.7294C14.8952 15.2363 14.6318 16.9043 14.2523 18.1165C14.0625 18.7222 13.8286 19.2092 13.6293 19.47C13.43 19.7308 13.365 19.7681 13.196 19.7681C12.9317 19.7681 12.9317 19.7412 12.8442 19.6052C12.7558 19.47 12.6544 19.1113 12.6544 18.5767C12.6544 17.6928 12.6718 16.2284 12.4378 14.894C12.3191 14.2268 12.1571 13.5839 11.8148 13.0258C11.4734 12.467 10.8201 11.9696 10.0549 11.9696C9.28982 11.9696 8.63648 12.467 8.29508 13.0258C7.95281 13.5839 7.78731 14.2268 7.67207 14.894C7.43811 16.2284 7.45544 17.6928 7.45544 18.5767C7.45544 19.1113 7.35406 19.47 7.26568 19.6061C7.17816 19.7412 7.17816 19.7681 6.91388 19.7681C6.74058 19.7681 6.67732 19.7274 6.48063 19.47C6.28393 19.2127 6.04738 18.7456 5.85761 18.1434C5.47895 16.939 5.21467 15.2528 4.80135 13.7294C4.40536 12.298 3.68443 11.2383 3.1498 10.2912C2.61517 9.34322 2.25644 8.55471 2.25644 7.50018C2.25644 5.94047 2.78067 4.71178 3.69136 3.84528C4.60206 2.97878 5.92174 2.43808 7.69893 2.43808Z" fill="#CACACA"/>
</svg>
